<svg width="32" height="32" viewBox="0 0 32 32" fill="none" xmlns="http://www.w3.org/2000/svg">
<path fill-rule="evenodd" clip-rule="evenodd" d="M9.56132 6.67866C9.56132 8.28986 8.25518 9.59599 6.64399 9.59599C5.03279 9.59599 3.72665 8.28986 3.72665 6.67866C3.72665 5.06746 5.03279 3.76132 6.64399 3.76132C8.25518 3.76132 9.56132 5.06746 9.56132 6.67866ZM12.316 27.992V11.8067H17.14V14.02H17.208C17.8787 12.7493 19.5187 11.4067 21.9653 11.4067C27.0613 11.4067 28 14.7573 28 19.1173V27.9933H22.972V20.1213C22.972 18.2453 22.94 15.8307 20.3573 15.8307C17.7387 15.8307 17.3413 17.876 17.3413 19.988V27.992H12.316ZM9.16001 11.8067H4.12668V27.992H9.16001V11.8067Z" fill="white"/>
</svg>
