<svg width="32" height="32" viewBox="0 0 32 32" fill="none" xmlns="http://www.w3.org/2000/svg">
<path d="M16 3C8.83125 3 3 8.83125 3 16C3 23.1687 8.83125 29 16 29C23.1687 29 29 23.1687 29 16C29 8.83125 23.1687 3 16 3ZM24.5969 8.99375C26.1437 10.8844 27.0812 13.2906 27.1031 15.9125C26.7375 15.8344 23.0656 15.0906 19.3719 15.5562C19.2938 15.3656 19.2156 15.175 19.1344 14.9844C18.9031 14.4438 18.6563 13.9031 18.3969 13.375C22.5 11.6969 24.3625 9.3125 24.5969 8.99375ZM16 4.9125C18.8219 4.9125 21.4 5.97187 23.3594 7.70937C23.1594 7.99375 21.4875 10.2406 17.5406 11.7219C15.7219 8.37813 13.7063 5.63438 13.3969 5.22188C14.25 5.01563 15.1219 4.9125 16 4.9125V4.9125ZM11.2781 5.96875C11.5719 6.36875 13.5563 9.12188 15.3938 12.3906C10.2 13.7687 5.625 13.75 5.12813 13.7437C5.85 10.2969 8.17187 7.43438 11.2781 5.96875ZM4.89687 16.0156C4.89687 15.9031 4.9 15.7875 4.90312 15.675C5.3875 15.6844 10.7687 15.7531 16.3156 14.0938C16.6344 14.7156 16.9375 15.3469 17.2156 15.9781C17.0688 16.0187 16.9219 16.0625 16.7781 16.1094C11.05 17.9656 8.00313 23.0125 7.75 23.4406C5.97812 21.4719 4.89687 18.8688 4.89687 16.0156ZM16 27.1187C13.4313 27.1187 11.0656 26.2437 9.18437 24.775C9.38437 24.3656 11.6312 20.025 17.8937 17.8406L17.9656 17.8156C19.525 21.8656 20.1688 25.2625 20.3344 26.2375C18.9646 26.823 17.4897 27.1228 16 27.1187V27.1187ZM22.2031 25.2219C22.0906 24.5469 21.5 21.2969 20.0469 17.3062C23.5281 16.75 26.5844 17.6625 26.9625 17.7812C26.4687 20.8688 24.6969 23.5375 22.2031 25.2219V25.2219Z" fill="white"/>
</svg>
